<?xml version="1.0" encoding="UTF-8"?>
<svg xmlns="http://www.w3.org/2000/svg" width="130px" viewBox="0 0 145.72 417.72">
  <defs>
    <style>.cls-1,.cls-2{fill-rule:#fff;}.cls-1{fill: #fff; opacity:0.2;}.cls-2{fill:none;stroke:#fff;stroke-miterlimit:10;}</style>
  </defs>
  <g id="Layer_2" data-name="Layer 2">
    <g id="Layer_1-2" data-name="Layer 1">
      <path class="cls-1" d="M115.52,0A3.52,3.52,0,1,1,112,3.52,3.52,3.52,0,0,1,115.52,0Z"></path>
      <path class="cls-1" d="M3.52,115A3.52,3.52,0,1,1,0,118.52,3.52,3.52,0,0,1,3.52,115Z"></path>
      <path class="cls-1" d="M117.52,149a3.52,3.52,0,1,1-3.52,3.52A3.52,3.52,0,0,1,117.52,149Z"></path>
      <path class="cls-1" d="M49.52,203A3.52,3.52,0,1,1,46,206.52,3.52,3.52,0,0,1,49.52,203Z"></path>
      <path class="cls-1" d="M130.52,283a3.52,3.52,0,1,1-3.52,3.52A3.51,3.51,0,0,1,130.52,283Z"></path>
      <path class="cls-1" d="M42.52,290A3.52,3.52,0,1,1,39,293.52,3.51,3.51,0,0,1,42.52,290Z"></path>
      <path class="cls-1" d="M116.52,413.32a2.2,2.2,0,1,1-2.2,2.2A2.19,2.19,0,0,1,116.52,413.32Z"></path>
      <path class="cls-1" d="M13.52,337.32a2.2,2.2,0,1,1-2.2,2.2A2.19,2.19,0,0,1,13.52,337.32Z"></path>
      <path class="cls-1" d="M120.52,333.32a2.2,2.2,0,1,1-2.2,2.2A2.19,2.19,0,0,1,120.52,333.32Z"></path>
      <path class="cls-1" d="M9.52,252.32a2.2,2.2,0,1,1-2.2,2.2A2.19,2.19,0,0,1,9.52,252.32Z"></path>
      <path class="cls-1" d="M124.52,229.32a2.2,2.2,0,1,1-2.2,2.2A2.2,2.2,0,0,1,124.52,229.32Z"></path>
      <path class="cls-1" d="M36.52,156.32a2.2,2.2,0,1,1-2.2,2.2A2.2,2.2,0,0,1,36.52,156.32Z"></path>
      <path class="cls-1" d="M143.52,135.32a2.2,2.2,0,1,1-2.2,2.2A2.2,2.2,0,0,1,143.52,135.32Z"></path>
      <path class="cls-1" d="M9.52,44.32a2.2,2.2,0,1,1-2.2,2.2A2.2,2.2,0,0,1,9.52,44.32Z"></path>
      <path class="cls-1" d="M91.52,90.32a2.2,2.2,0,1,1-2.2,2.2A2.2,2.2,0,0,1,91.52,90.32Z"></path>
      <path class="cls-1" d="M91.52,180.32a2.2,2.2,0,1,1-2.2,2.2A2.2,2.2,0,0,1,91.52,180.32Z"></path>
      <path class="cls-1" d="M91.52,270.32a2.2,2.2,0,1,1-2.2,2.2A2.19,2.19,0,0,1,91.52,270.32Z"></path>
      <path class="cls-1" d="M91.52,360.32a2.2,2.2,0,1,1-2.2,2.2A2.19,2.19,0,0,1,91.52,360.32Z"></path>
      <path class="cls-2" d="M71.52,139.32a2.2,2.2,0,1,1-2.2,2.2A2.2,2.2,0,0,1,71.52,139.32Z"></path>
      <path class="cls-2" d="M71.52,229.32a2.2,2.2,0,1,1-2.2,2.2A2.2,2.2,0,0,1,71.52,229.32Z"></path>
      <path class="cls-2" d="M71.52,319.32a2.2,2.2,0,1,1-2.2,2.2A2.19,2.19,0,0,1,71.52,319.32Z"></path>
      <path class="cls-2" d="M71.52,409.32a2.2,2.2,0,1,1-2.2,2.2A2.19,2.19,0,0,1,71.52,409.32Z"></path>
      <path class="cls-2" d="M68.52,113.12a4.4,4.4,0,1,1-4.4,4.4A4.4,4.4,0,0,1,68.52,113.12Z"></path>
      <path class="cls-2" d="M88.52,68.12a4.4,4.4,0,1,1-4.4,4.4A4.4,4.4,0,0,1,88.52,68.12Z"></path>
      <path class="cls-2" d="M68.52,203.12a4.4,4.4,0,1,1-4.4,4.4A4.4,4.4,0,0,1,68.52,203.12Z"></path>
      <path class="cls-2" d="M88.52,158.12a4.4,4.4,0,1,1-4.4,4.4A4.4,4.4,0,0,1,88.52,158.12Z"></path>
      <path class="cls-2" d="M68.52,293.12a4.4,4.4,0,1,1-4.4,4.4A4.4,4.4,0,0,1,68.52,293.12Z"></path>
      <path class="cls-2" d="M88.52,248.12a4.4,4.4,0,1,1-4.4,4.4A4.4,4.4,0,0,1,88.52,248.12Z"></path>
      <path class="cls-2" d="M68.52,383.12a4.4,4.4,0,1,1-4.4,4.4A4.4,4.4,0,0,1,68.52,383.12Z"></path>
      <path class="cls-2" d="M88.52,338.12a4.4,4.4,0,1,1-4.4,4.4A4.4,4.4,0,0,1,88.52,338.12Z"></path>
    </g>
  </g>
</svg>
